<?xml version="1.0" ?><svg viewBox="0 0 64 64" xmlns="http://www.w3.org/2000/svg"><defs><style>.cls-1{fill:#001934;}.cls-2{fill:#fff;}</style></defs><title/><g data-name="21-tumblr" id="_21-tumblr"><rect class="cls-1" height="64" rx="11.2" ry="11.2" transform="translate(64 64) rotate(180)" width="64"/><path class="cls-2" d="M41.69,43.52c-1.27.48-3.86,1.15-5.49-.45a3.36,3.36,0,0,1-1-2.43V29.2h7.2a.8.8,0,0,0,.8-.8V21.2a.8.8,0,0,0-.8-.8h-7.2v-10H28a.81.81,0,0,0-.8.82c.06,2.87-.65,7.3-7.5,10.51a.83.83,0,0,0-.47.73V29.2h4.8V41.6s0,12,11.2,12c5.64,0,8.33-2,9.24-2.81A.8.8,0,0,0,44.7,50l-2-5.93A.81.81,0,0,0,41.69,43.52Z"/></g></svg>